# Blender 4.4.3
# www.blender.org
mtllib amarela2.mtl
o all_balls.012
v 0.154867 -0.000001 -0.000000
v 0.142042 0.064478 -0.000000
v 0.128159 -0.000001 0.064479
v 0.142042 -0.064480 -0.000000
v 0.128159 -0.000001 -0.064479
v 0.126913 -0.045593 0.045594
v 0.126913 0.045593 -0.045593
v 0.126913 0.045594 0.045594
v 0.126913 -0.045594 -0.045593
v 0.094907 -0.066180 -0.112976
v 0.104216 -0.000001 -0.122284
v 0.068399 -0.122285 -0.086468
v 0.141703 -0.066180 -0.000000
v -0.018069 -0.066180 -0.159772
v -0.018069 -0.122285 -0.122284
v -0.131044 -0.066180 -0.112976
v -0.018069 -0.000001 -0.172936
v -0.018069 0.066179 -0.159772
v -0.140353 -0.000001 -0.122284
v -0.131044 0.066180 -0.112976
v -0.191004 -0.000001 -0.000000
v -0.177840 0.066180 -0.000000
v -0.177840 -0.066180 -0.000000
v -0.140353 -0.000001 0.122284
v -0.131044 0.066180 0.112976
v -0.131044 -0.066180 0.112976
v -0.018069 -0.000001 0.172936
v -0.018069 0.066180 0.159772
v -0.018069 -0.066179 0.159772
v 0.104216 -0.000001 0.122284
v 0.094907 0.066180 0.112976
v 0.094907 -0.066180 0.112976
v 0.068399 -0.122285 0.086468
v 0.028728 -0.159773 0.046796
v 0.104216 -0.122285 -0.000000
v -0.018069 -0.122285 0.122284
v -0.018069 -0.159773 0.066180
v -0.104537 -0.122285 0.086468
v -0.064865 -0.159773 0.046796
v -0.140353 -0.122285 -0.000000
v -0.084248 -0.159773 -0.000000
v -0.104537 -0.122285 -0.086468
v -0.064865 -0.159773 -0.046796
v -0.018069 -0.159773 -0.066180
v -0.018069 -0.172937 -0.000000
v 0.048111 -0.159773 -0.000000
v 0.028728 -0.159773 -0.046796
v 0.068399 0.122284 0.086468
v 0.141703 0.066180 -0.000000
v 0.104216 0.122284 -0.000000
v 0.094907 0.066180 -0.112976
v 0.068399 0.122284 -0.086468
v 0.028728 0.159771 -0.046796
v -0.018069 0.122284 -0.122284
v -0.018069 0.159771 -0.066180
v -0.104537 0.122284 -0.086468
v -0.064865 0.159771 -0.046796
v -0.140353 0.122284 -0.000000
v -0.084248 0.159771 -0.000000
v -0.104537 0.122284 0.086468
v -0.064865 0.159771 0.046796
v -0.018069 0.122284 0.122284
v -0.018069 0.159771 0.066180
v 0.028728 0.159771 0.046796
v -0.018069 0.172935 -0.000000
v 0.048111 0.159771 -0.000000
vn 0.9087 -0.1807 -0.3764
vn 0.9087 -0.1806 -0.3764
vn 0.9087 -0.1808 -0.3764
vn 0.9086 -0.1809 -0.3765
vn 0.3764 -0.1807 -0.9087
vn 0.3764 -0.1808 -0.9087
vn 0.7862 -0.5253 -0.3256
vn 0.7861 -0.5253 -0.3256
vn 0.3256 -0.5253 -0.7862
vn -0.3256 -0.5253 -0.7862
vn -0.3764 -0.1807 -0.9087
vn 0.3764 0.1807 -0.9087
vn -0.3764 0.1807 -0.9087
vn -0.9087 0.1807 -0.3764
vn -0.9087 0.1808 -0.3764
vn -0.9087 -0.1807 -0.3764
vn -0.9087 -0.1808 -0.3764
vn -0.9087 0.1807 0.3764
vn -0.9087 -0.1807 0.3764
vn -0.3764 0.1807 0.9087
vn -0.3764 -0.1807 0.9087
vn 0.3764 0.1807 0.9087
vn 0.3764 -0.1807 0.9087
vn 0.9087 0.1807 0.3764
vn 0.9087 0.1808 0.3764
vn 0.9087 -0.1807 0.3764
vn 0.3256 -0.5253 0.7862
vn 0.7862 -0.5253 0.3256
vn 0.7861 -0.5253 0.3256
vn 0.9086 -0.1809 0.3765
vn 0.9087 -0.1808 0.3764
vn -0.3256 -0.5253 0.7862
vn -0.7862 -0.5253 0.3256
vn -0.7862 -0.5253 -0.3256
vn 0.3256 0.5253 0.7862
vn 0.7862 0.5253 0.3256
vn 0.9086 0.1808 0.3765
vn 0.7862 0.5253 -0.3256
vn 0.9086 0.1808 -0.3765
vn 0.9087 0.1807 -0.3764
vn 0.3256 0.5253 -0.7862
vn -0.3256 0.5253 -0.7862
vn -0.7862 0.5253 -0.3256
vn -0.7862 0.5253 0.3256
vn -0.3256 0.5253 0.7862
vn 0.3256 0.5253 0.7861
vn 0.7861 0.5253 0.3256
vn -0.3256 0.5253 -0.7861
vn 0.2243 -0.8103 0.5414
vn 0.5414 -0.8103 0.2243
vn -0.2243 -0.8103 0.5414
vn -0.5414 -0.8103 0.2243
vn -0.5414 -0.8103 -0.2243
vn -0.2243 -0.8103 -0.5414
vn -0.1945 -0.9776 -0.0805
vn -0.0805 -0.9776 -0.1945
vn 0.1945 -0.9776 0.0805
vn 0.1945 -0.9776 -0.0805
vn 0.0805 -0.9776 -0.1945
vn 0.0805 -0.9776 0.1944
vn -0.0805 -0.9776 0.1945
vn -0.1945 -0.9776 0.0805
vn 0.5414 -0.8103 -0.2243
vn 0.2243 -0.8103 -0.5414
vn 0.5414 0.8103 -0.2243
vn 0.2243 0.8103 -0.5414
vn -0.2243 0.8103 -0.5414
vn -0.5414 0.8103 -0.2243
vn -0.5414 0.8103 0.2243
vn -0.2243 0.8103 0.5414
vn 0.2243 0.8103 0.5414
vn 0.0805 0.9776 0.1945
vn -0.0805 0.9776 0.1945
vn 0.1945 0.9776 -0.0805
vn 0.0805 0.9776 -0.1945
vn -0.0805 0.9776 -0.1945
vn 0.1945 0.9776 0.0805
vn -0.1945 0.9776 0.0805
vn -0.1945 0.9776 -0.0805
vn 0.5414 0.8103 0.2243
vn -0.5414 0.8103 -0.2242
vt 0.000000 0.000000
vt 0.500000 0.375000
vt 0.750000 0.500000
vt 0.625000 0.375000
vt 0.750000 0.375000
vt 0.500000 0.250000
vt 0.625000 0.250000
vt 0.750000 0.250000
vt 0.875000 0.250000
vt 0.875000 0.500000
vt 0.875000 0.375000
vt 0.750000 0.625000
vt 0.625000 0.500000
vt 0.875000 0.625000
vt 1.000000 0.500000
vt 1.000000 0.375000
vt 0.125000 0.625000
vt 0.000000 0.500000
vt 0.125000 0.500000
vt 0.000000 0.375000
vt 0.125000 0.375000
vt 0.250000 0.625000
vt 0.250000 0.500000
vt 0.250000 0.375000
vt 0.375000 0.625000
vt 0.375000 0.500000
vt 0.375000 0.375000
vt 0.250000 0.250000
vt 0.375000 0.250000
vt 0.125000 0.250000
vt 0.000000 0.250000
vt 1.000000 0.250000
vt 0.375000 0.750000
vt 0.500000 0.750000
vt 0.500000 0.625000
vt 0.625000 0.750000
vt 0.625000 0.625000
vt 0.750000 0.750000
vt 0.875000 0.750000
vt 1.000000 0.750000
vt 1.000000 0.625000
vt 0.125000 0.750000
vt 0.000000 0.625000
vt 0.250000 0.750000
vt 0.000000 0.750000
vt 0.500000 0.621788
vt 0.450854 0.586117
vt 0.500000 0.500000
vt 0.549146 0.586117
vt 0.434089 0.500000
vt 0.450854 0.413883
vt 0.500000 0.378212
vt 0.565911 0.500000
vt 0.375000 0.125000
vt 0.250000 0.125000
vt 0.500000 0.125000
vt 0.125000 0.125000
vt 0.000000 0.125000
vt 0.875000 0.125000
vt 1.000000 0.125000
vt 0.750000 0.125000
vt 0.937500 0.000000
vt 0.812500 0.000000
vt 0.437500 0.000000
vt 0.562500 0.000000
vt 0.625000 0.125000
vt 0.687500 0.000000
vt 0.312500 0.000000
vt 0.187500 0.000000
vt 0.062500 0.000000
vt 0.625000 0.875000
vt 0.750000 0.875000
vt 0.875000 0.875000
vt 0.000000 0.875000
vt 0.125000 0.875000
vt 0.375000 0.875000
vt 0.312500 1.000000
vt 0.250000 0.875000
vt 0.187500 1.000000
vt 0.562500 1.000000
vt 0.500000 0.875000
vt 0.687500 1.000000
vt 0.812500 1.000000
vt 0.437500 1.000000
vt 0.062500 1.000000
vt 1.000000 0.875000
vt 0.937500 1.000000
s 1
usemtl yellow.003
f 5/1/1 10/1/1 11/1/1
f 13/2/2 9/1/3 4/1/4
f 17/3/5 10/4/5 14/5/6
f 10/4/7 35/6/7 12/7/8
f 14/5/9 12/7/9 15/8/9
f 42/9/10 14/5/10 15/8/10
f 19/10/11 14/5/11 16/11/11
f 18/12/12 11/13/12 17/3/12
f 20/14/13 17/3/13 19/10/13
f 21/15/14 20/14/14 19/10/15
f 21/15/16 16/11/17 23/16/16
f 25/17/18 21/18/18 24/19/18
f 24/19/19 23/20/19 26/21/19
f 28/22/20 24/19/20 27/23/20
f 27/23/21 26/21/21 29/24/21
f 31/25/22 27/23/22 30/26/22
f 30/26/23 29/24/23 32/27/23
f 31/1/24 3/1/24 8/1/25
f 32/1/26 3/1/26 30/1/26
f 32/27/27 36/28/27 33/29/27
f 35/6/28 32/27/28 33/29/29
f 13/1/30 6/1/31 32/1/26
f 29/24/32 38/30/32 36/28/32
f 26/21/33 40/31/33 38/30/33
f 23/16/34 42/9/34 40/32/34
f 48/33/35 28/22/35 31/25/35
f 50/34/36 31/25/36 49/35/36
f 8/1/25 49/1/37 31/1/24
f 52/36/38 49/35/38 51/37/38
f 49/1/39 7/1/40 51/1/40
f 54/38/41 51/37/41 18/12/41
f 5/1/40 51/1/40 7/1/40
f 56/39/42 18/12/42 20/14/42
f 58/40/43 20/14/43 22/41/43
f 60/42/44 22/43/44 25/17/44
f 62/44/45 25/17/45 28/22/45
f 5/1/1 9/1/3 10/1/1
f 13/2/2 10/4/1 9/1/3
f 17/3/5 11/13/5 10/4/5
f 10/4/7 13/2/7 35/6/7
f 14/5/9 10/4/9 12/7/9
f 42/9/10 16/11/10 14/5/10
f 19/10/11 17/3/11 14/5/11
f 18/12/12 51/37/12 11/13/12
f 20/14/13 18/12/13 17/3/13
f 21/15/14 22/41/14 20/14/14
f 21/15/16 19/10/17 16/11/17
f 25/17/18 22/43/18 21/18/18
f 24/19/19 21/18/19 23/20/19
f 28/22/20 25/17/20 24/19/20
f 27/23/21 24/19/21 26/21/21
f 31/25/22 28/22/22 27/23/22
f 30/26/23 27/23/23 29/24/23
f 31/1/24 30/1/24 3/1/24
f 32/1/26 6/1/31 3/1/26
f 32/27/27 29/24/27 36/28/27
f 35/6/28 13/2/28 32/27/28
f 13/1/30 4/1/30 6/1/31
f 29/24/32 26/21/32 38/30/32
f 26/21/33 23/20/33 40/31/33
f 23/16/34 16/11/34 42/9/34
f 48/33/35 62/44/46 28/22/35
f 50/34/36 48/33/47 31/25/36
f 8/1/25 2/1/37 49/1/37
f 52/36/38 50/34/38 49/35/38
f 49/1/39 2/1/39 7/1/40
f 54/38/41 52/36/41 51/37/41
f 5/1/40 11/1/40 51/1/40
f 56/39/42 54/38/48 18/12/42
f 58/40/43 56/39/43 20/14/43
f 60/42/44 58/45/44 22/43/44
f 62/44/45 60/42/45 25/17/45
usemtl white.007
f 2/46/37 8/47/25 1/48/24
f 7/49/40 2/46/39 1/48/40
f 3/50/26 6/51/31 1/48/26
f 1/48/24 8/47/25 3/50/24
f 6/51/31 4/52/30 1/48/26
f 9/1/3 1/1/1 4/1/4
f 1/1/18 5/1/18 9/1/18
f 5/53/40 7/49/40 1/48/40
f 34/54/49 36/28/49 37/55/49
f 46/56/50 33/29/50 34/54/50
f 37/55/51 38/30/51 39/57/51
f 38/30/52 41/58/52 39/57/52
f 40/32/53 43/59/53 41/60/53
f 42/9/54 44/61/54 43/59/54
f 45/62/55 41/60/55 43/59/55
f 45/63/56 43/59/56 44/61/56
f 45/64/57 46/56/57 34/54/57
f 45/65/58 47/66/58 46/56/58
f 45/67/59 44/61/59 47/66/59
f 45/68/60 34/54/60 37/55/60
f 45/69/61 37/55/61 39/57/61
f 45/70/62 39/57/62 41/58/62
f 47/66/63 35/6/63 46/56/63
f 44/61/64 12/7/64 47/66/64
f 53/71/65 50/34/65 52/36/65
f 55/72/66 52/36/66 54/38/66
f 56/39/67 55/72/67 54/38/67
f 58/40/68 57/73/68 56/39/68
f 60/42/69 59/74/69 58/45/69
f 62/44/70 61/75/70 60/42/70
f 64/76/71 62/44/71 48/33/71
f 64/76/72 65/77/72 63/78/72
f 63/78/73 65/79/73 61/75/73
f 53/71/74 65/80/74 66/81/74
f 55/72/75 65/82/75 53/71/75
f 57/73/76 65/83/76 55/72/76
f 66/81/77 65/84/77 64/76/77
f 61/75/78 65/85/78 59/74/78
f 59/86/79 65/87/79 57/73/79
f 66/81/80 48/33/80 50/34/80
f 34/54/49 33/29/49 36/28/49
f 46/56/50 35/6/50 33/29/50
f 37/55/51 36/28/51 38/30/51
f 38/30/52 40/31/52 41/58/52
f 40/32/53 42/9/53 43/59/53
f 42/9/54 15/8/54 44/61/54
f 47/66/63 12/7/63 35/6/63
f 44/61/64 15/8/64 12/7/64
f 53/71/65 66/81/65 50/34/65
f 55/72/66 53/71/66 52/36/66
f 56/39/67 57/73/67 55/72/67
f 58/40/68 59/86/81 57/73/68
f 60/42/69 61/75/69 59/74/69
f 62/44/70 63/78/70 61/75/70
f 64/76/71 63/78/71 62/44/71
f 66/81/80 64/76/80 48/33/80
