# Blender 4.4.3
# www.blender.org
mtllib amarela1.mtl
o all_balls.007
v -1.653279 3.676844 -0.448018
v -1.666104 3.741323 -0.448018
v -1.679987 3.676844 -0.383539
v -1.666104 3.612365 -0.448018
v -1.679987 3.676844 -0.512498
v -1.681234 3.631251 -0.402425
v -1.681234 3.722438 -0.493612
v -1.681234 3.722438 -0.402425
v -1.681234 3.631251 -0.493612
v -1.713239 3.610665 -0.560994
v -1.703931 3.676844 -0.570303
v -1.739747 3.554560 -0.534486
v -1.666443 3.610665 -0.448018
v -1.826215 3.610665 -0.607790
v -1.826215 3.554560 -0.570303
v -1.939190 3.610665 -0.560994
v -1.826215 3.676844 -0.620954
v -1.826215 3.743024 -0.607790
v -1.948499 3.676844 -0.570303
v -1.939190 3.743024 -0.560994
v -1.999151 3.676844 -0.448018
v -1.985986 3.743024 -0.448018
v -1.985986 3.610665 -0.448018
v -1.948499 3.676844 -0.325734
v -1.939190 3.743024 -0.335043
v -1.939190 3.610665 -0.335043
v -1.826215 3.676844 -0.275083
v -1.826215 3.743024 -0.288247
v -1.826215 3.610665 -0.288247
v -1.703931 3.676844 -0.325734
v -1.713239 3.743024 -0.335043
v -1.713239 3.610665 -0.335043
v -1.739747 3.554560 -0.361551
v -1.779419 3.517072 -0.401222
v -1.703931 3.554560 -0.448018
v -1.826215 3.554560 -0.325734
v -1.826215 3.517072 -0.381839
v -1.912683 3.554560 -0.361551
v -1.873011 3.517072 -0.401222
v -1.948499 3.554560 -0.448018
v -1.892394 3.517072 -0.448018
v -1.912683 3.554560 -0.534486
v -1.873011 3.517072 -0.494815
v -1.826215 3.517072 -0.514198
v -1.826215 3.503908 -0.448018
v -1.760035 3.517072 -0.448018
v -1.779419 3.517072 -0.494815
v -1.739747 3.799129 -0.361551
v -1.666443 3.743024 -0.448018
v -1.703931 3.799129 -0.448018
v -1.713239 3.743024 -0.560994
v -1.739747 3.799129 -0.534486
v -1.779419 3.836616 -0.494815
v -1.826215 3.799129 -0.570303
v -1.826215 3.836616 -0.514198
v -1.912683 3.799129 -0.534486
v -1.873011 3.836616 -0.494815
v -1.948499 3.799129 -0.448018
v -1.892394 3.836616 -0.448018
v -1.912683 3.799129 -0.361551
v -1.873011 3.836616 -0.401222
v -1.826215 3.799129 -0.325734
v -1.826215 3.836616 -0.381839
v -1.779419 3.836616 -0.401222
v -1.826215 3.849780 -0.448018
v -1.760035 3.836616 -0.448018
vn 0.9087 0.1807 0.3764
vn 0.9087 0.1807 -0.3764
vn 0.9087 -0.1807 0.3764
vn 0.9087 -0.1807 -0.3764
vn -0.9087 0.1807 0.3764
vn 0.3764 -0.1807 -0.9087
vn 0.7862 -0.5253 -0.3256
vn 0.3256 -0.5253 -0.7862
vn -0.3256 -0.5253 -0.7862
vn -0.3764 -0.1807 -0.9087
vn 0.3764 0.1807 -0.9087
vn -0.3764 0.1807 -0.9087
vn -0.9087 0.1807 -0.3764
vn -0.9087 -0.1807 -0.3764
vn -0.9087 -0.1807 0.3764
vn -0.3764 0.1807 0.9087
vn -0.3764 -0.1807 0.9087
vn 0.3764 0.1807 0.9087
vn 0.3764 -0.1807 0.9087
vn 0.3256 -0.5253 0.7862
vn 0.7862 -0.5253 0.3256
vn 0.2243 -0.8103 0.5414
vn 0.5414 -0.8103 0.2243
vn -0.3256 -0.5253 0.7862
vn -0.2243 -0.8103 0.5414
vn -0.7862 -0.5253 0.3256
vn -0.5414 -0.8103 0.2243
vn -0.7862 -0.5253 -0.3256
vn -0.5414 -0.8103 -0.2243
vn -0.2243 -0.8103 -0.5414
vn -0.1945 -0.9776 -0.0805
vn -0.0805 -0.9776 -0.1945
vn 0.1945 -0.9776 0.0805
vn 0.1945 -0.9776 -0.0805
vn 0.0805 -0.9776 -0.1945
vn 0.0805 -0.9776 0.1945
vn -0.0805 -0.9776 0.1945
vn -0.1945 -0.9776 0.0805
vn 0.5414 -0.8103 -0.2243
vn 0.2243 -0.8103 -0.5414
vn 0.3256 0.5253 0.7862
vn 0.7862 0.5253 0.3256
vn 0.7862 0.5253 -0.3256
vn 0.3256 0.5253 -0.7862
vn 0.5414 0.8103 -0.2243
vn 0.2243 0.8103 -0.5414
vn -0.2243 0.8103 -0.5414
vn -0.3256 0.5253 -0.7862
vn -0.5414 0.8103 -0.2243
vn -0.7862 0.5253 -0.3256
vn -0.5414 0.8103 0.2243
vn -0.7862 0.5253 0.3256
vn -0.2243 0.8103 0.5414
vn -0.3256 0.5253 0.7862
vn 0.2243 0.8103 0.5414
vn 0.0805 0.9776 0.1945
vn -0.0805 0.9776 0.1945
vn 0.1945 0.9776 -0.0805
vn 0.0805 0.9776 -0.1945
vn -0.0805 0.9776 -0.1945
vn 0.1945 0.9776 0.0805
vn -0.1945 0.9776 0.0805
vn -0.1945 0.9776 -0.0805
vn 0.5414 0.8103 0.2243
vt 0.500000 0.621788
vt 0.450854 0.586117
vt 0.500000 0.500000
vt 0.549146 0.586117
vt 0.434089 0.500000
vt 0.450854 0.413883
vt 0.500000 0.378212
vt 0.000000 0.000000
vt 0.565911 0.500000
vt 0.549146 0.413883
vt 0.500000 0.375000
vt 0.750000 0.375000
vt 0.625000 0.500000
vt 0.625000 0.375000
vt 0.625000 0.250000
vt 0.500000 0.250000
vt 0.750000 0.250000
vt 0.875000 0.375000
vt 0.875000 0.250000
vt 0.875000 0.500000
vt 0.750000 0.625000
vt 0.750000 0.500000
vt 0.875000 0.625000
vt 1.000000 0.625000
vt 1.000000 0.500000
vt 1.000000 0.375000
vt 0.125000 0.500000
vt 0.000000 0.625000
vt 0.000000 0.500000
vt 0.000000 0.375000
vt 0.125000 0.375000
vt 0.250000 0.625000
vt 0.250000 0.500000
vt 0.250000 0.375000
vt 0.375000 0.500000
vt 0.375000 0.375000
vt 0.250000 0.250000
vt 0.375000 0.250000
vt 0.375000 0.125000
vt 0.250000 0.125000
vt 0.500000 0.125000
vt 0.125000 0.250000
vt 0.125000 0.125000
vt 0.000000 0.250000
vt 0.000000 0.125000
vt 1.000000 0.250000
vt 0.875000 0.125000
vt 1.000000 0.125000
vt 0.750000 0.125000
vt 0.937500 0.000000
vt 0.812500 0.000000
vt 0.437500 0.000000
vt 0.562500 0.000000
vt 0.625000 0.125000
vt 0.687500 0.000000
vt 0.312500 0.000000
vt 0.187500 0.000000
vt 0.062500 0.000000
vt 0.375000 0.625000
vt 0.250000 0.750000
vt 0.500000 0.750000
vt 0.500000 0.625000
vt 0.625000 0.750000
vt 0.625000 0.625000
vt 0.750000 0.750000
vt 0.500000 0.875000
vt 0.750000 0.875000
vt 0.875000 0.875000
vt 0.875000 0.750000
vt 1.000000 0.875000
vt 1.000000 0.750000
vt 0.125000 0.750000
vt 0.000000 0.875000
vt 0.000000 0.750000
vt 0.125000 0.625000
vt 0.125000 0.875000
vt 0.375000 0.875000
vt 0.375000 0.750000
vt 0.312500 1.000000
vt 0.250000 0.875000
vt 0.187500 1.000000
vt 0.625000 0.875000
vt 0.562500 1.000000
vt 0.687500 1.000000
vt 0.812500 1.000000
vt 0.437500 1.000000
vt 0.062500 1.000000
vt 0.937500 1.000000
s 0
usemtl yellow
f 1/8/5 5/8/5 9/8/5
f 5/8/4 10/8/4 11/8/4
f 13/11/4 9/8/4 4/8/4
f 14/12/6 11/13/6 10/14/6
f 12/15/7 13/11/7 35/16/7
f 14/12/8 12/15/8 15/17/8
f 16/18/9 15/17/9 42/19/9
f 19/20/10 14/12/10 16/18/10
f 18/21/11 11/13/11 17/22/11
f 20/23/12 17/22/12 19/20/12
f 22/24/13 19/20/13 21/25/13
f 23/26/14 19/20/14 16/18/14
f 24/27/5 22/28/5 21/29/5
f 24/27/15 23/30/15 26/31/15
f 28/32/16 24/27/16 27/33/16
f 27/33/17 26/31/17 29/34/17
f 30/35/18 28/32/18 27/33/18
f 30/35/19 29/34/19 32/36/19
f 31/8/1 3/8/1 8/8/1
f 32/8/3 3/8/3 30/8/3
f 32/36/20 36/37/20 33/38/20
f 13/11/21 33/38/21 35/16/21
f 13/8/3 6/8/3 32/8/3
f 34/39/22 36/37/22 37/40/22
f 35/16/23 34/39/23 46/41/23
f 36/37/24 26/31/24 38/42/24
f 36/37/25 39/43/25 37/40/25
f 26/31/26 40/44/26 38/42/26
f 38/42/27 41/45/27 39/43/27
f 23/26/28 42/19/28 40/46/28
f 40/46/29 43/47/29 41/48/29
f 43/47/30 15/17/30 44/49/30
f 45/50/31 41/48/31 43/47/31
f 45/51/32 43/47/32 44/49/32
f 45/52/33 46/41/33 34/39/33
f 45/53/34 47/54/34 46/41/34
f 45/55/35 44/49/35 47/54/35
f 45/56/36 34/39/36 37/40/36
f 45/57/37 37/40/37 39/43/37
f 45/58/38 39/43/38 41/45/38
f 12/15/39 46/41/39 47/54/39
f 15/17/40 47/54/40 44/49/40
f 31/59/41 62/60/41 28/32/41
f 50/61/42 31/59/42 49/62/42
f 8/8/1 49/8/1 31/8/1
f 52/63/43 49/62/43 51/64/43
f 49/8/2 7/8/2 51/8/2
f 54/65/44 51/64/44 18/21/44
f 5/8/2 51/8/2 7/8/2
f 52/63/45 66/66/45 50/61/45
f 55/67/46 52/63/46 54/65/46
f 57/68/47 54/65/47 56/69/47
f 20/23/48 54/65/48 18/21/48
f 59/70/49 56/69/49 58/71/49
f 58/71/50 20/23/50 22/24/50
f 60/72/51 59/73/51 58/74/51
f 60/72/52 22/28/52 25/75/52
f 62/60/53 61/76/53 60/72/53
f 62/60/54 25/75/54 28/32/54
f 64/77/55 62/60/55 48/78/55
f 64/77/56 65/79/56 63/80/56
f 63/80/57 65/81/57 61/76/57
f 53/82/58 65/83/58 66/66/58
f 55/67/59 65/84/59 53/82/59
f 57/68/60 65/85/60 55/67/60
f 66/66/61 65/86/61 64/77/61
f 61/76/62 65/87/62 59/73/62
f 59/70/63 65/88/63 57/68/63
f 50/61/64 64/77/64 48/78/64
f 5/8/4 9/8/4 10/8/4
f 13/11/4 10/14/4 9/8/4
f 14/12/6 17/22/6 11/13/6
f 12/15/7 10/14/7 13/11/7
f 14/12/8 10/14/8 12/15/8
f 16/18/9 14/12/9 15/17/9
f 19/20/10 17/22/10 14/12/10
f 18/21/11 51/64/11 11/13/11
f 20/23/12 18/21/12 17/22/12
f 22/24/13 20/23/13 19/20/13
f 23/26/14 21/25/14 19/20/14
f 24/27/5 25/75/5 22/28/5
f 24/27/15 21/29/15 23/30/15
f 28/32/16 25/75/16 24/27/16
f 27/33/17 24/27/17 26/31/17
f 30/35/18 31/59/18 28/32/18
f 30/35/19 27/33/19 29/34/19
f 31/8/1 30/8/1 3/8/1
f 32/8/3 6/8/3 3/8/3
f 32/36/20 29/34/20 36/37/20
f 13/11/21 32/36/21 33/38/21
f 13/8/3 4/8/3 6/8/3
f 34/39/22 33/38/22 36/37/22
f 35/16/23 33/38/23 34/39/23
f 36/37/24 29/34/24 26/31/24
f 36/37/25 38/42/25 39/43/25
f 26/31/26 23/30/26 40/44/26
f 38/42/27 40/44/27 41/45/27
f 23/26/28 16/18/28 42/19/28
f 40/46/29 42/19/29 43/47/29
f 43/47/30 42/19/30 15/17/30
f 12/15/39 35/16/39 46/41/39
f 15/17/40 12/15/40 47/54/40
f 31/59/41 48/78/41 62/60/41
f 50/61/42 48/78/42 31/59/42
f 8/8/1 2/8/1 49/8/1
f 52/63/43 50/61/43 49/62/43
f 49/8/2 2/8/2 7/8/2
f 54/65/44 52/63/44 51/64/44
f 5/8/2 11/8/2 51/8/2
f 52/63/45 53/82/45 66/66/45
f 55/67/46 53/82/46 52/63/46
f 57/68/47 55/67/47 54/65/47
f 20/23/48 56/69/48 54/65/48
f 59/70/49 57/68/49 56/69/49
f 58/71/50 56/69/50 20/23/50
f 60/72/51 61/76/51 59/73/51
f 60/72/52 58/74/52 22/28/52
f 62/60/53 63/80/53 61/76/53
f 62/60/54 60/72/54 25/75/54
f 64/77/55 63/80/55 62/60/55
f 50/61/64 66/66/64 64/77/64
usemtl white
f 2/1/1 8/2/1 1/3/1
f 7/4/2 2/1/2 1/3/2
f 3/5/3 6/6/3 1/3/3
f 1/3/1 8/2/1 3/5/1
f 6/6/3 4/7/3 1/3/3
f 9/8/4 1/8/4 4/8/4
f 1/3/5 5/9/5 9/10/5
f 5/9/2 7/4/2 1/3/2
