# Blender 4.4.3
# www.blender.org
mtllib cueball.mtl
o cue_ball
v 0.154867 -0.000002 -0.000000
v 0.126912 -0.045596 -0.045593
v 0.142041 -0.064481 -0.000000
v 0.126912 -0.045596 0.045594
v 0.128159 -0.000002 0.064479
v 0.128159 -0.000002 -0.064479
v 0.126912 0.045591 -0.045593
v 0.126912 0.045591 0.045594
v 0.142041 0.064477 -0.000000
v -0.018069 -0.000002 -0.172936
v -0.018069 0.172934 -0.000000
v 0.028727 0.159770 -0.046796
v 0.068399 0.122282 -0.086468
v 0.094907 0.066178 -0.112976
v 0.104215 -0.000002 -0.122284
v 0.094907 -0.066182 -0.112976
v 0.068399 -0.122286 -0.086468
v 0.028727 -0.159774 -0.046796
v 0.048111 0.159770 -0.000000
v 0.104215 0.122282 -0.000000
v 0.141703 0.066178 -0.000000
v 0.141703 -0.066182 -0.000000
v 0.104215 -0.122286 -0.000000
v 0.048111 -0.159774 -0.000000
v -0.018069 -0.172938 -0.000000
v 0.028727 0.159770 0.046796
v 0.068399 0.122282 0.086468
v 0.094907 0.066178 0.112976
v 0.104215 -0.000002 0.122284
v 0.094907 -0.066182 0.112976
v 0.068399 -0.122286 0.086468
v 0.028727 -0.159774 0.046796
v -0.018069 0.159770 0.066180
v -0.018069 0.122282 0.122284
v -0.018069 0.066178 0.159772
v -0.018069 -0.000002 0.172936
v -0.018069 -0.066182 0.159772
v -0.018069 -0.122286 0.122284
v -0.018069 -0.159774 0.066180
v -0.064865 0.159770 0.046796
v -0.104537 0.122282 0.086468
v -0.131045 0.066178 0.112976
v -0.140353 -0.000002 0.122284
v -0.131045 -0.066182 0.112976
v -0.104537 -0.122286 0.086468
v -0.064865 -0.159774 0.046796
v -0.084249 0.159770 -0.000000
v -0.140353 0.122282 -0.000000
v -0.177841 0.066178 -0.000000
v -0.191005 -0.000002 -0.000000
v -0.177841 -0.066182 -0.000000
v -0.140353 -0.122286 -0.000000
v -0.084249 -0.159774 -0.000000
v -0.064865 0.159770 -0.046796
v -0.104537 0.122282 -0.086468
v -0.131045 0.066178 -0.112976
v -0.140353 -0.000002 -0.122284
v -0.131045 -0.066182 -0.112976
v -0.104537 -0.122286 -0.086468
v -0.064865 -0.159774 -0.046796
v -0.018069 0.159770 -0.066179
v -0.018069 0.122282 -0.122284
v -0.018069 0.066178 -0.159772
v -0.018069 -0.066182 -0.159772
v -0.018069 -0.122286 -0.122284
v -0.018069 -0.159774 -0.066179
vn 0.9087 0.1808 0.3764
vn 0.9087 0.1807 0.3764
vn 0.9087 0.1808 -0.3764
vn 0.9087 0.1807 -0.3764
vn 0.9087 -0.1807 -0.3764
vn 0.9087 -0.1807 -0.3763
vn 0.9087 -0.1807 0.3764
vn 0.9087 -0.1808 0.3764
vn 0.0805 0.9776 -0.1945
vn 0.0805 -0.9776 -0.1945
vn 0.3256 -0.5253 -0.7861
vn 0.3764 0.1807 -0.9087
vn 0.2243 0.8103 -0.5414
vn 0.2243 -0.8103 -0.5414
vn 0.3764 -0.1807 -0.9087
vn 0.3256 0.5253 -0.7861
vn 0.5414 0.8103 -0.2243
vn 0.5414 -0.8103 -0.2243
vn 0.7861 0.5253 -0.3256
vn 0.1945 0.9776 -0.0805
vn 0.1945 -0.9776 -0.0805
vn 0.7861 -0.5253 -0.3256
vn 0.5414 -0.8103 0.2243
vn 0.7861 0.5253 0.3256
vn 0.1945 0.9776 0.0805
vn 0.1945 -0.9776 0.0805
vn 0.7861 -0.5253 0.3256
vn 0.7862 -0.5253 0.3256
vn 0.5414 0.8103 0.2243
vn 0.3256 0.5253 0.7861
vn 0.0805 0.9776 0.1945
vn 0.0805 -0.9776 0.1945
vn 0.3256 -0.5253 0.7861
vn 0.3764 0.1807 0.9087
vn 0.2243 0.8103 0.5414
vn 0.2243 -0.8103 0.5414
vn 0.3764 -0.1807 0.9087
vn -0.0805 -0.9776 0.1945
vn -0.3256 -0.5253 0.7861
vn -0.3764 0.1807 0.9087
vn -0.2243 0.8103 0.5414
vn -0.2243 -0.8103 0.5414
vn -0.3764 -0.1807 0.9087
vn -0.3256 0.5253 0.7861
vn -0.0805 0.9776 0.1945
vn -0.5414 0.8103 0.2243
vn -0.5414 -0.8103 0.2243
vn -0.9087 -0.1807 0.3764
vn -0.7861 0.5253 0.3256
vn -0.7862 0.5253 0.3256
vn -0.1945 0.9776 0.0805
vn -0.1945 -0.9776 0.0805
vn -0.7861 -0.5253 0.3256
vn -0.9087 0.1807 0.3764
vn -0.5414 -0.8103 -0.2243
vn -0.9087 -0.1807 -0.3764
vn -0.7861 0.5253 -0.3256
vn -0.1945 0.9776 -0.0805
vn -0.1945 -0.9776 -0.0805
vn -0.7861 -0.5253 -0.3256
vn -0.9087 0.1807 -0.3764
vn -0.5414 0.8103 -0.2243
vn -0.0805 0.9776 -0.1945
vn -0.0805 -0.9776 -0.1945
vn -0.3256 -0.5253 -0.7861
vn -0.3256 -0.5253 -0.7862
vn -0.3764 0.1807 -0.9087
vn -0.2243 0.8103 -0.5414
vn -0.2243 -0.8103 -0.5414
vn -0.3764 -0.1807 -0.9087
vn -0.3256 0.5253 -0.7861
vn 0.9087 -0.1807 0.3763
vn -0.9087 0.1808 0.3764
vn -0.3256 0.5253 -0.7862
vt 0.500000 0.500000
vt 0.450854 0.586117
vt 0.434089 0.500000
vt 0.565911 0.500000
vt 0.549146 0.586117
vt 0.000000 0.000000
vt 0.450854 0.413883
vt 0.750000 0.875000
vt 0.687500 1.000000
vt 0.625000 0.875000
vt 0.687500 0.000000
vt 0.750000 0.125000
vt 0.625000 0.125000
vt 0.750000 0.375000
vt 0.625000 0.250000
vt 0.750000 0.250000
vt 0.750000 0.625000
vt 0.625000 0.500000
vt 0.750000 0.500000
vt 0.750000 0.750000
vt 0.625000 0.750000
vt 0.625000 0.375000
vt 0.625000 0.625000
vt 0.500000 0.750000
vt 0.500000 0.250000
vt 0.500000 0.125000
vt 0.500000 0.375000
vt 0.500000 0.625000
vt 0.562500 1.000000
vt 0.500000 0.875000
vt 0.562500 0.000000
vt 0.375000 0.125000
vt 0.375000 0.625000
vt 0.437500 1.000000
vt 0.375000 0.875000
vt 0.437500 0.000000
vt 0.375000 0.250000
vt 0.375000 0.750000
vt 0.250000 0.625000
vt 0.312500 1.000000
vt 0.250000 0.875000
vt 0.312500 0.000000
vt 0.250000 0.125000
vt 0.250000 0.375000
vt 0.250000 0.250000
vt 0.250000 0.500000
vt 0.375000 0.500000
vt 0.250000 0.750000
vt 0.375000 0.375000
vt 0.187500 0.000000
vt 0.125000 0.125000
vt 0.125000 0.375000
vt 0.125000 0.250000
vt 0.125000 0.625000
vt 0.125000 0.500000
vt 0.125000 0.875000
vt 0.125000 0.750000
vt 0.187500 1.000000
vt 0.000000 0.750000
vt 0.000000 0.125000
vt 0.000000 0.375000
vt 0.000000 0.625000
vt 0.062500 1.000000
vt 0.000000 0.875000
vt 0.062500 0.000000
vt 0.000000 0.250000
vt 0.000000 0.500000
vt 1.000000 0.125000
vt 0.875000 0.250000
vt 0.875000 0.125000
vt 1.000000 0.500000
vt 0.875000 0.375000
vt 1.000000 0.375000
vt 1.000000 0.750000
vt 0.875000 0.625000
vt 1.000000 0.625000
vt 1.000000 0.875000
vt 0.937500 1.000000
vt 0.875000 0.875000
vt 0.937500 0.000000
vt 1.000000 0.250000
vt 0.875000 0.500000
vt 0.875000 0.750000
vt 0.812500 1.000000
vt 0.812500 0.000000
vt 0.500000 0.378212
vt 0.500000 0.621788
s 1
usemtl white.006
f 1/1/1 8/2/2 5/3/1
f 6/4/3 7/5/4 1/1/3
f 2/6/5 1/6/5 3/6/6
f 5/3/7 4/7/7 1/1/8
f 61/8/9 11/9/9 12/10/9
f 25/11/10 66/12/10 18/13/10
f 64/14/11 17/15/11 65/16/11
f 63/17/12 15/18/12 10/19/12
f 62/20/13 12/10/13 13/21/13
f 65/16/14 18/13/14 66/12/14
f 64/14/15 15/18/15 16/22/15
f 63/17/16 13/21/16 14/23/16
f 12/10/17 20/24/17 13/21/17
f 18/13/18 23/25/18 24/26/18
f 22/27/6 2/6/5 3/6/6
f 13/21/19 21/28/19 14/23/19
f 12/10/20 11/29/20 19/30/20
f 25/31/21 18/13/21 24/26/21
f 16/22/22 23/25/22 17/15/22
f 23/25/23 32/32/23 24/26/23
f 20/24/24 28/33/24 21/28/24
f 19/30/25 11/34/25 26/35/25
f 25/36/26 24/26/26 32/32/26
f 22/27/27 31/37/27 23/25/28
f 19/30/29 27/38/29 20/24/29
f 27/38/30 35/39/30 28/33/30
f 26/35/31 11/40/31 33/41/31
f 25/42/32 32/32/32 39/43/32
f 31/37/33 37/44/33 38/45/33
f 28/33/34 36/46/34 29/47/34
f 26/35/35 34/48/35 27/38/35
f 31/37/36 39/43/36 32/32/36
f 29/47/37 37/44/37 30/49/37
f 25/50/38 39/43/38 46/51/38
f 38/45/39 44/52/39 45/53/39
f 36/46/40 42/54/40 43/55/40
f 34/48/41 40/56/41 41/57/41
f 38/45/42 46/51/42 39/43/42
f 36/46/43 44/52/43 37/44/43
f 34/48/44 42/54/44 35/39/44
f 33/41/45 11/58/45 40/56/45
f 40/56/46 48/59/46 41/57/46
f 45/53/47 53/60/47 46/51/47
f 43/55/48 51/61/48 44/52/48
f 41/57/49 49/62/49 42/54/50
f 40/56/51 11/63/51 47/64/51
f 25/65/52 46/51/52 53/60/52
f 44/52/53 52/66/53 45/53/53
f 43/55/54 49/62/54 50/67/54
f 53/68/55 59/69/55 60/70/55
f 50/71/56 58/72/56 51/73/56
f 48/74/57 56/75/57 49/76/57
f 47/77/58 11/78/58 54/79/58
f 25/80/59 53/68/59 60/70/59
f 52/81/60 58/72/60 59/69/60
f 50/71/61 56/75/61 57/82/61
f 47/77/62 55/83/62 48/74/62
f 54/79/63 11/84/63 61/8/63
f 25/85/64 60/70/64 66/12/64
f 58/72/65 65/16/65 59/69/66
f 56/75/67 10/19/67 57/82/67
f 54/79/68 62/20/68 55/83/68
f 59/69/69 66/12/69 60/70/69
f 57/82/70 64/14/70 58/72/70
f 55/83/71 63/17/71 56/75/71
f 6/6/5 16/6/5 15/6/5
f 4/7/7 3/86/72 1/1/8
f 7/5/4 9/87/4 1/1/3
f 22/6/72 4/6/7 30/6/7
f 9/87/2 8/2/2 1/1/1
f 1/6/73 6/6/73 2/6/73
f 30/6/7 5/6/7 29/6/7
f 8/6/2 21/6/2 28/6/2
f 28/6/2 5/6/1 8/6/2
f 21/6/4 7/6/4 14/6/4
f 6/6/4 14/6/4 7/6/4
f 64/14/11 16/22/11 17/15/11
f 63/17/12 14/23/12 15/18/12
f 62/20/13 61/8/13 12/10/13
f 65/16/14 17/15/14 18/13/14
f 64/14/15 10/19/15 15/18/15
f 63/17/16 62/20/16 13/21/16
f 12/10/17 19/30/17 20/24/17
f 18/13/18 17/15/18 23/25/18
f 22/27/6 16/22/5 2/6/5
f 13/21/19 20/24/19 21/28/19
f 16/22/22 22/27/22 23/25/22
f 23/25/23 31/37/23 32/32/23
f 20/24/24 27/38/24 28/33/24
f 22/27/27 30/49/27 31/37/27
f 19/30/29 26/35/29 27/38/29
f 27/38/30 34/48/30 35/39/30
f 31/37/33 30/49/33 37/44/33
f 28/33/34 35/39/34 36/46/34
f 26/35/35 33/41/35 34/48/35
f 31/37/36 38/45/36 39/43/36
f 29/47/37 36/46/37 37/44/37
f 38/45/39 37/44/39 44/52/39
f 36/46/40 35/39/40 42/54/40
f 34/48/41 33/41/41 40/56/41
f 38/45/42 45/53/42 46/51/42
f 36/46/43 43/55/43 44/52/43
f 34/48/44 41/57/44 42/54/44
f 40/56/46 47/64/46 48/59/46
f 45/53/47 52/66/47 53/60/47
f 43/55/48 50/67/48 51/61/48
f 41/57/49 48/59/49 49/62/49
f 44/52/53 51/61/53 52/66/53
f 43/55/54 42/54/54 49/62/54
f 53/68/55 52/81/55 59/69/55
f 50/71/56 57/82/56 58/72/56
f 48/74/57 55/83/57 56/75/57
f 52/81/60 51/73/60 58/72/60
f 50/71/61 49/76/61 56/75/61
f 47/77/62 54/79/62 55/83/62
f 58/72/65 64/14/65 65/16/65
f 56/75/67 63/17/67 10/19/67
f 54/79/68 61/8/68 62/20/68
f 59/69/69 65/16/69 66/12/69
f 57/82/70 10/19/70 64/14/70
f 55/83/71 62/20/74 63/17/71
f 6/6/5 2/6/5 16/6/5
f 22/6/72 3/6/72 4/6/7
f 30/6/7 4/6/7 5/6/7
f 8/6/2 9/6/2 21/6/2
f 28/6/2 29/6/2 5/6/1
f 21/6/4 9/6/4 7/6/4
f 6/6/4 15/6/4 14/6/4
