# Blender 4.4.3
# www.blender.org
mtllib luz.mtl
o Light_Ceiling1
v -0.000000 -0.684502 -0.113169
v 0.112018 -0.684502 0.016106
v 0.085528 -0.684502 0.074110
v -0.061184 -0.684502 -0.095204
v -0.112018 -0.684502 0.016106
v -0.102943 -0.684502 -0.047012
v -0.000000 -0.746746 -0.169970
v -0.168240 -0.746746 0.024189
v -0.091893 -0.746746 -0.142988
v -0.031884 -0.684502 0.108585
v -0.128455 -0.746746 0.111307
v -0.085528 -0.684502 0.074110
v 0.102943 -0.684502 -0.047012
v 0.031884 -0.684502 0.108585
v -0.047886 -0.746746 0.163085
v 0.047886 -0.746746 0.163085
v 0.168240 -0.746746 0.024189
v 0.061184 -0.684502 -0.095204
v 0.154610 -0.746746 -0.070608
v -0.060077 -0.823136 0.204603
v -0.161157 -0.823136 0.139643
v 0.060077 -0.823136 0.204603
v 0.128455 -0.746746 0.111307
v 0.161157 -0.823136 0.139643
v -0.154610 -0.746746 -0.070608
v -0.193971 -0.823136 -0.088583
v -0.000000 -0.823136 -0.213241
v -0.115287 -0.823136 -0.179389
v -0.211070 -0.823136 0.030347
v 0.115287 -0.823136 -0.179390
v 0.091893 -0.746746 -0.142988
v 0.193971 -0.823136 -0.088583
v 0.211070 -0.823136 0.030347
v 0.202412 -0.823136 -0.092438
v 0.098097 -0.747964 -0.152642
v 0.165049 -0.747964 -0.075375
v 0.220255 -0.823136 0.031668
v 0.137128 -0.747964 0.118822
v 0.168170 -0.823136 0.145720
v 0.179599 -0.747964 0.025823
v 0.062691 -0.823136 0.213507
v 0.051119 -0.747964 0.174096
v -0.062691 -0.823136 0.213507
v -0.137128 -0.747964 0.118822
v -0.168170 -0.823136 0.145720
v -0.051119 -0.747964 0.174097
v -0.220255 -0.823136 0.031668
v -0.179599 -0.747964 0.025823
v -0.165049 -0.747964 -0.075375
v -0.202412 -0.823136 -0.092438
v -0.098097 -0.747964 -0.152642
v -0.120304 -0.823136 -0.187196
v -0.000000 -0.823136 -0.222520
v -0.000000 -0.747964 -0.181446
v 0.120304 -0.823136 -0.187196
v 0.115287 -0.823136 -0.179390
v -0.000000 -0.823136 -0.213241
v -0.000000 -0.823136 -0.222520
v 0.202412 -0.823136 -0.092438
v 0.193971 -0.823136 -0.088583
v 0.168170 -0.823136 0.145720
v 0.062691 -0.823136 0.213507
v 0.060077 -0.823136 0.204603
v 0.161157 -0.823136 0.139643
v 0.220255 -0.823136 0.031668
v -0.202412 -0.823136 -0.092438
v -0.115287 -0.823136 -0.179389
v -0.193971 -0.823136 -0.088583
v -0.211070 -0.823136 0.030347
v -0.220255 -0.823136 0.031668
v -0.060077 -0.823136 0.204603
v -0.168170 -0.823136 0.145720
v -0.161157 -0.823136 0.139643
v -0.062691 -0.823136 0.213507
v 0.120304 -0.823136 -0.187196
v -0.120304 -0.823136 -0.187196
v 0.211070 -0.823136 0.030347
v -0.058406 -0.672793 -0.090882
v -0.000000 -0.644198 0.000000
v -0.000000 -0.672793 -0.108032
v -0.098269 -0.672793 -0.044878
v -0.106932 -0.672793 0.015375
v -0.081645 -0.672793 0.070746
v -0.030436 -0.672793 0.103656
v 0.030436 -0.672793 0.103656
v 0.081645 -0.672793 0.070746
v 0.106932 -0.672793 0.015375
v 0.098269 -0.672793 -0.044878
v 0.058406 -0.672793 -0.090882
v 0.000000 -0.026878 -0.108739
v -0.103417 -0.026878 -0.033602
v -0.063915 -0.026878 -0.087971
v 0.063915 -0.026878 0.087971
v -0.103417 -0.026878 0.033602
v -0.063915 -0.026878 0.087971
v -0.000000 -0.026878 0.108739
v 0.103417 -0.026878 -0.033602
v 0.063915 -0.026878 -0.087971
v 0.103417 -0.026878 0.033602
v -0.063915 -0.026878 -0.087971
v 0.000000 -0.001098 -0.108739
v 0.000000 -0.026878 -0.108739
v -0.063915 -0.001098 -0.087971
v -0.103417 -0.026878 -0.033602
v -0.103417 -0.001098 -0.033602
v 0.063915 -0.001098 0.087971
v -0.103417 -0.001098 -0.033602
v -0.103417 -0.001098 0.033602
v -0.063915 -0.001098 0.087971
v -0.000000 -0.001098 0.108739
v 0.103417 -0.001098 -0.033602
v 0.103417 -0.001098 0.033602
v 0.000000 -0.001098 -0.108739
v 0.063915 -0.001098 -0.087971
v -0.063915 -0.001098 -0.087971
v -0.103417 -0.026878 0.033602
v -0.103417 -0.001098 0.033602
v -0.063915 -0.026878 0.087971
v -0.063915 -0.001098 0.087971
v -0.000000 -0.026878 0.108739
v -0.000000 -0.001098 0.108739
v 0.063915 -0.026878 0.087971
v 0.063915 -0.001098 0.087971
v 0.103417 -0.026878 0.033602
v 0.103417 -0.001098 0.033602
v 0.103417 -0.026878 -0.033602
v 0.103417 -0.001098 -0.033602
v 0.063915 -0.026878 -0.087971
v 0.063915 -0.001098 -0.087971
v 0.008080 -0.022153 -0.008080
v 0.011427 -0.675657 0.000000
v 0.008080 -0.675657 -0.008080
v -0.000000 -0.022153 -0.011427
v 0.011427 -0.675657 0.000000
v -0.000000 -0.675657 -0.011427
v 0.008080 -0.675657 -0.008080
v -0.008080 -0.675657 -0.008080
v -0.008080 -0.675657 0.008080
v -0.011427 -0.675657 0.000000
v 0.008080 -0.675657 0.008080
v -0.000000 -0.675657 0.011427
v -0.008080 -0.022153 -0.008080
v -0.000000 -0.675657 -0.011427
v -0.008080 -0.675657 -0.008080
v -0.011427 -0.022153 0.000000
v 0.008080 -0.022153 0.008080
v -0.008080 -0.022153 0.008080
v -0.000000 -0.022153 0.011427
v 0.011427 -0.022153 0.000000
v -0.000000 -0.022153 -0.011427
v 0.008080 -0.022153 -0.008080
v -0.008080 -0.022153 -0.008080
v -0.011427 -0.022153 0.000000
v -0.000000 -0.022153 0.011427
v -0.008080 -0.675657 0.008080
v -0.000000 -0.675657 0.011427
v 0.008080 -0.022153 0.008080
v -0.008080 -0.022153 0.008080
v -0.011427 -0.675657 0.000000
v 0.011427 -0.022153 0.000000
v 0.008080 -0.675657 0.008080
v -0.007652 -0.796795 0.006630
v -0.019952 -0.788724 0.017289
v -0.010021 -0.796795 0.001441
v 0.000000 -0.796795 -0.010124
v -0.002852 -0.796795 0.009715
v -0.007438 -0.788724 0.025331
v 0.002852 -0.796795 0.009715
v 0.007652 -0.796795 0.006630
v -0.024015 -0.788724 -0.010967
v -0.009210 -0.796795 -0.004206
v -0.005474 -0.796795 -0.008517
v 0.005474 -0.796795 -0.008517
v 0.024015 -0.788724 -0.010967
v 0.009210 -0.796795 -0.004206
v -0.014273 -0.788724 -0.022210
v 0.007438 -0.788724 0.025331
v 0.010022 -0.796795 0.001441
v 0.019952 -0.788724 0.017289
v 0.026132 -0.788724 0.003757
v -0.000000 -0.788724 -0.026401
v 0.020485 -0.670749 -0.031875
v 0.034466 -0.770404 -0.015740
v 0.020485 -0.770404 -0.031875
v -0.000000 -0.670749 -0.037890
v -0.000000 -0.770404 -0.037890
v -0.034466 -0.770404 -0.015740
v -0.020485 -0.770404 -0.031875
v -0.020485 -0.670749 -0.031875
v -0.026132 -0.788724 0.003757
v -0.037504 -0.770404 0.005392
v -0.034466 -0.670749 -0.015740
v -0.037504 -0.670749 0.005392
v -0.028635 -0.670749 0.024813
v -0.028635 -0.770404 0.024813
v -0.010675 -0.770404 0.036355
v -0.010675 -0.670749 0.036355
v 0.010675 -0.670749 0.036355
v 0.010675 -0.770404 0.036355
v 0.028635 -0.670749 0.024813
v 0.028635 -0.770404 0.024813
v 0.037504 -0.770404 0.005392
v 0.037504 -0.670749 0.005392
v 0.014273 -0.788724 -0.022210
v 0.034466 -0.670749 -0.015740
vn -0.0000 -0.8872 0.4614
vn -0.4567 -0.8872 -0.0657
vn -0.3487 -0.8872 -0.3021
vn 0.2494 -0.8872 0.3881
vn 0.4567 -0.8872 -0.0657
vn 0.4197 -0.8872 0.1917
vn -0.0000 -0.5778 0.8162
vn 0.8079 -0.5778 -0.1162
vn 0.4413 -0.5778 0.6866
vn 0.1300 -0.8872 -0.4427
vn 0.6168 -0.5778 -0.5345
vn 0.3487 -0.8872 -0.3021
vn -0.4197 -0.8872 0.1917
vn -0.1300 -0.8872 -0.4427
vn 0.2299 -0.5778 -0.7831
vn -0.2300 -0.5778 -0.7831
vn -0.8079 -0.5778 -0.1162
vn -0.2494 -0.8872 0.3881
vn -0.7424 -0.5778 0.3391
vn 0.2451 -0.4929 -0.8349
vn 0.6576 -0.4929 -0.5698
vn -0.2451 -0.4929 -0.8349
vn -0.6168 -0.5778 -0.5345
vn -0.6576 -0.4929 -0.5698
vn 0.7424 -0.5778 0.3391
vn 0.7915 -0.4929 0.3615
vn -0.0000 -0.4929 0.8701
vn 0.4704 -0.4929 0.7320
vn 0.8612 -0.4929 -0.1238
vn -0.4704 -0.4929 0.7320
vn -0.4413 -0.5778 0.6866
vn -0.7915 -0.4929 0.3615
vn -0.8612 -0.4929 -0.1238
vn 0.7982 0.4795 -0.3645
vn 0.4392 0.5832 -0.6834
vn 0.7389 0.5832 -0.3375
vn 0.8686 0.4795 0.1249
vn 0.6139 0.5832 0.5320
vn 0.6632 0.4795 0.5747
vn 0.8041 0.5832 0.1156
vn 0.2472 0.4795 0.8420
vn 0.2289 0.5832 0.7794
vn -0.2472 0.4795 0.8420
vn -0.6139 0.5832 0.5320
vn -0.6632 0.4795 0.5747
vn -0.2289 0.5832 0.7794
vn -0.8686 0.4795 0.1249
vn -0.8041 0.5832 0.1156
vn -0.7389 0.5832 -0.3375
vn -0.7982 0.4795 -0.3645
vn -0.4392 0.5832 -0.6834
vn -0.4744 0.4795 -0.7382
vn -0.0000 0.4795 -0.8775
vn -0.0000 0.5832 -0.8123
vn 0.4744 0.4795 -0.7382
vn -0.0000 -1.0000 -0.0000
vn -0.2909 0.8429 -0.4526
vn -0.0000 1.0000 -0.0000
vn -0.0000 0.8429 -0.5381
vn -0.4894 0.8429 -0.2235
vn -0.5326 0.8429 0.0766
vn -0.4066 0.8429 0.3523
vn -0.1516 0.8429 0.5163
vn 0.1516 0.8429 0.5163
vn 0.4066 0.8429 0.3523
vn 0.5326 0.8429 0.0766
vn 0.4894 0.8429 -0.2235
vn 0.2909 0.8429 -0.4526
vn -0.5878 -0.0000 -0.8090
vn -0.0000 -0.0000 -1.0000
vn -0.9511 -0.0000 -0.3090
vn -0.9511 -0.0000 0.3090
vn -0.5878 -0.0000 0.8090
vn -0.0000 -0.0000 1.0000
vn 0.5878 -0.0000 0.8090
vn 0.9511 -0.0000 0.3090
vn 0.9511 -0.0000 -0.3090
vn 0.5878 -0.0000 -0.8090
vn 0.7071 -0.0000 -0.7071
vn 1.0000 -0.0000 -0.0000
vn -0.7071 -0.0000 -0.7071
vn -1.0000 -0.0000 -0.0000
vn -0.7071 -0.0000 0.7071
vn 0.7071 -0.0000 0.7071
vn -0.2015 -0.9638 0.1746
vn -0.5262 -0.7178 0.4560
vn -0.2639 -0.9638 0.0379
vn -0.0000 -0.9638 -0.2667
vn -0.0751 -0.9638 0.2559
vn -0.1962 -0.7178 0.6681
vn 0.0751 -0.9638 0.2559
vn 0.2015 -0.9638 0.1746
vn -0.6334 -0.7178 -0.2892
vn -0.2426 -0.9638 -0.1108
vn -0.1442 -0.9638 -0.2243
vn 0.1442 -0.9638 -0.2243
vn 0.6334 -0.7178 -0.2892
vn 0.2426 -0.9638 -0.1108
vn -0.3764 -0.7178 -0.5858
vn 0.1962 -0.7178 0.6681
vn 0.2639 -0.9638 0.0380
vn 0.5262 -0.7178 0.4560
vn 0.6892 -0.7178 0.0991
vn -0.0000 -0.7178 -0.6963
vn 0.5406 -0.0000 -0.8413
vn 0.8773 -0.2641 -0.4007
vn 0.5215 -0.2641 -0.8114
vn -0.0000 -0.2641 -0.9645
vn -0.8773 -0.2641 -0.4007
vn -0.5214 -0.2641 -0.8114
vn -0.5406 -0.0000 -0.8413
vn -0.6892 -0.7178 0.0991
vn -0.9547 -0.2641 0.1373
vn -0.9096 -0.0000 -0.4154
vn -0.9898 -0.0000 0.1423
vn -0.7557 -0.0000 0.6549
vn -0.7289 -0.2641 0.6316
vn -0.2717 -0.2641 0.9254
vn -0.2817 -0.0000 0.9595
vn 0.2817 -0.0000 0.9595
vn 0.2717 -0.2641 0.9254
vn 0.7558 -0.0000 0.6549
vn 0.7289 -0.2641 0.6316
vn 0.9547 -0.2641 0.1373
vn 0.9898 -0.0000 0.1423
vn 0.3764 -0.7178 -0.5857
vn 0.9096 -0.0000 -0.4154
s 1
usemtl Grey
f 1//1 2//2 3//3
f 4//4 5//5 6//6
f 4//4 7//7 1//1
f 6//6 5//5 8//8
f 6//6 9//9 4//4
f 10//10 11//11 12//12
f 2//2 1//1 13//13
f 5//5 1//1 12//12
f 5//5 4//4 1//1
f 12//12 8//8 5//5
f 12//12 14//14 10//10
f 14//14 15//15 10//10
f 14//14 1//1 3//3
f 14//14 12//12 1//1
f 3//3 16//16 14//14
f 3//3 2//2 17//17
f 13//13 1//1 18//18
f 13//13 17//17 2//2
f 18//18 19//19 13//13
f 18//18 1//1 7//7
f 15//15 14//14 16//16
f 20//20 21//21 11//11
f 20//20 16//16 22//22
f 16//16 3//3 23//23
f 16//16 20//20 15//15
f 22//22 23//23 24//24
f 9//9 25//25 26//26
f 9//9 6//6 25//25
f 9//9 27//27 7//7
f 26//26 28//28 9//9
f 25//25 8//8 29//29
f 8//8 25//25 6//6
f 8//8 12//12 11//11
f 29//29 26//26 25//25
f 29//29 11//11 21//21
f 11//11 29//29 8//8
f 11//11 10//10 15//15
f 11//11 15//15 20//20
f 27//27 9//9 28//28
f 27//27 30//30 31//31
f 7//7 31//31 18//18
f 7//7 4//4 9//9
f 31//31 32//32 19//19
f 31//31 7//7 27//27
f 23//23 22//22 16//16
f 23//23 17//17 33//33
f 32//32 31//31 30//30
f 17//17 13//13 19//19
f 17//17 23//23 3//3
f 33//33 19//19 32//32
f 33//33 24//24 23//23
f 19//19 33//33 17//17
f 19//19 18//18 31//31
f 34//34 35//35 36//36
f 37//37 38//38 39//39
f 37//37 36//36 40//40
f 41//41 38//38 42//42
f 43//43 44//44 45//45
f 43//43 42//42 46//46
f 47//47 44//44 48//48
f 47//47 49//49 50//50
f 50//50 51//51 52//52
f 53//53 51//51 54//54
f 53//53 35//35 55//55
s 0
f 56//56 57//56 58//56
f 56//56 59//56 60//56
f 61//56 62//56 63//56
f 64//56 65//56 61//56
f 66//56 67//56 68//56
f 68//56 69//56 70//56
f 63//56 64//56 61//56
f 71//56 72//56 73//56
f 62//56 71//56 63//56
f 62//56 74//56 71//56
f 58//56 75//56 56//56
f 67//56 66//56 76//56
f 57//56 76//56 58//56
f 76//56 57//56 67//56
f 59//56 56//56 75//56
f 60//56 65//56 77//56
f 65//56 64//56 77//56
f 65//56 60//56 59//56
f 70//56 66//56 68//56
f 72//56 70//56 69//56
f 72//56 71//56 74//56
f 69//56 73//56 72//56
s 1
f 51//51 53//53 52//52
f 51//51 50//50 49//49
f 78//57 79//58 80//59
f 78//57 54//54 51//51
f 78//57 49//49 81//60
f 49//49 47//47 48//48
f 49//49 78//57 51//51
f 81//60 48//48 82//61
f 81//60 79//58 78//57
f 48//48 81//60 49//49
f 48//48 44//44 82//61
f 82//61 79//58 81//60
f 44//44 83//62 82//61
f 44//44 43//43 46//46
f 44//44 47//47 45//45
f 44//44 84//63 83//62
f 83//62 79//58 82//61
f 46//46 85//64 84//63
f 84//63 44//44 46//46
f 84//63 79//58 83//62
f 42//42 43//43 41//41
f 85//64 38//38 86//65
f 85//64 42//42 38//38
f 85//64 46//46 42//42
f 85//64 79//58 84//63
f 86//65 79//58 85//64
f 38//38 37//37 40//40
f 38//38 41//41 39//39
f 38//38 87//66 86//65
f 87//66 38//38 40//40
f 87//66 79//58 86//65
f 40//40 88//67 87//66
f 88//67 79//58 87//66
f 88//67 40//40 36//36
f 36//36 37//37 34//34
f 36//36 89//68 88//67
f 35//35 34//34 55//55
f 35//35 53//53 54//54
f 54//54 78//57 80//59
f 54//54 89//68 35//35
f 89//68 36//36 35//35
f 89//68 79//58 88//67
f 89//68 54//54 80//59
f 80//59 79//58 89//68
s 0
f 90//56 91//56 92//56
f 91//56 93//56 94//56
f 95//56 93//56 96//56
f 94//56 93//56 95//56
f 97//56 91//56 90//56
f 97//56 90//56 98//56
f 93//56 91//56 97//56
f 93//56 97//56 99//56
s 1
f 100//69 101//70 102//70
f 103//69 104//71 105//71
s 0
f 106//58 107//58 108//58
f 106//58 108//58 109//58
f 106//58 109//58 110//58
f 111//58 107//58 106//58
f 111//58 106//58 112//58
f 113//58 111//58 114//58
f 107//58 113//58 115//58
f 107//58 111//58 113//58
s 1
f 104//71 103//69 100//69
f 105//71 116//72 117//72
f 116//72 105//71 104//71
f 117//72 118//73 119//73
f 118//73 117//72 116//72
f 119//73 120//74 121//74
f 120//74 119//73 118//73
f 121//74 122//75 123//75
f 122//75 121//74 120//74
f 123//75 124//76 125//76
f 124//76 123//75 122//75
f 125//76 126//77 127//77
f 126//77 125//76 124//76
f 127//77 128//78 129//78
f 128//78 127//77 126//77
f 101//70 100//69 103//69
f 102//70 129//78 128//78
f 129//78 102//70 101//70
usemtl LightMetal
f 130//79 131//80 132//79
f 130//79 132//79 133//70
s 0
f 134//56 135//56 136//56
f 137//56 138//56 139//56
f 138//56 135//56 134//56
f 138//56 134//56 140//56
f 138//56 140//56 141//56
f 135//56 138//56 137//56
s 1
f 142//81 143//70 144//81
f 142//81 144//81 145//82
f 133//70 143//70 142//81
f 133//70 132//79 143//70
s 0
f 146//58 147//58 148//58
f 149//58 147//58 146//58
f 150//58 149//58 151//58
f 147//58 150//58 152//58
f 147//58 149//58 150//58
f 147//58 152//58 153//58
s 1
f 154//74 155//83 156//74
f 154//74 156//74 157//84
f 158//83 155//83 154//74
f 158//83 159//82 155//83
f 145//82 159//82 158//83
f 145//82 144//81 159//82
f 160//80 131//80 130//79
f 160//80 161//84 131//80
f 157//84 156//74 161//84
f 157//84 161//84 160//80
usemtl Light
f 162//85 163//86 164//87
f 162//85 165//88 166//89
f 162//85 167//90 163//86
f 166//89 165//88 168//91
f 168//91 165//88 169//92
f 168//91 167//90 166//89
f 164//87 170//93 171//94
f 164//87 172//95 162//85
f 173//96 174//97 175//98
f 175//98 165//88 173//96
f 171//94 176//99 172//95
f 169//92 165//88 175//98
f 169//92 177//100 168//91
f 169//92 175//98 178//101
f 178//101 179//102 169//92
f 178//101 174//97 180//103
f 165//88 181//104 173//96
f 165//88 162//85 172//95
f 172//95 181//104 165//88
f 172//95 164//87 171//94
f 182//105 183//106 184//107
f 182//105 184//107 185//70
f 176//99 186//108 181//104
f 176//99 171//94 170//93
f 176//99 187//109 188//110
f 185//70 184//107 186//108
f 185//70 186//108 189//111
f 170//93 164//87 190//112
f 170//93 191//113 187//109
f 189//111 188//110 192//114
f 189//111 186//108 188//110
f 192//114 188//110 187//109
f 187//109 193//115 192//114
f 187//109 176//99 170//93
f 193//115 187//109 191//113
f 191//113 194//116 193//115
f 191//113 163//86 195//117
f 191//113 170//93 190//112
f 163//86 196//118 195//117
f 163//86 190//112 164//87
f 163//86 191//113 190//112
f 194//116 191//113 195//117
f 195//117 197//119 194//116
f 167//90 162//85 166//89
f 167//90 168//91 177//100
f 197//119 195//117 196//118
f 196//118 163//86 167//90
f 196//118 198//120 197//119
f 196//118 177//100 199//121
f 177//100 169//92 179//102
f 177//100 196//118 167//90
f 198//120 196//118 199//121
f 199//121 200//122 198//120
f 199//121 179//102 201//123
f 179//102 178//101 180//103
f 179//102 199//121 177//100
f 179//102 202//124 201//123
f 200//122 199//121 201//123
f 201//123 203//125 200//122
f 174//97 202//124 180//103
f 174//97 173//96 204//126
f 174//97 178//101 175//98
f 203//125 201//123 202//124
f 205//127 183//106 182//105
f 205//127 202//124 183//106
f 202//124 205//127 203//125
f 202//124 179//102 180//103
f 202//124 174//97 183//106
f 184//107 183//106 204//126
f 181//104 172//95 176//99
f 181//104 204//126 173//96
f 204//126 186//108 184//107
f 204//126 183//106 174//97
f 186//108 176//99 188//110
f 186//108 204//126 181//104
